<svg xmlns="http://www.w3.org/2000/svg" width="1624.917" height="204.001" viewBox="0 0 1624.917 204.001"><defs><style>.a{fill:#40356f;}.b{fill:#645fce;}</style></defs><g transform="translate(225.917 273.892)"><path class="a" d="M733.543-608.383c-5.391,2.443-19.12,19.457-28.975,36.051a92.724,92.724,0,0,1-5.559,8.676,94.989,94.989,0,0,1-8.17-4.97c-13.14-8.339-20.889-11.877-26.112-11.877-8.17,0-12.466,4.464-16.257,16.762-2.611,8.676-6.233,24.09-6.233,27.038-.084,4.38-.59,4.548-11.455,3.117-28.3-3.706-35.461-2.359-39.5,7.16-3.117,7.665.168,38.746,6.4,59.3l1.769,5.98,10.276,1.011c9.013.842,18.868,2.443,23.332,3.875,1.348.421,1.6.084,1.6-2.19,0-6.907,5.728-36.809,9.35-48.938,3.032-10.192,10.192-16,18.11-14.488,4.3.758,19.2,10.782,29.734,19.878a24.268,24.268,0,0,0,4.212,3.2c.337,0,1.853-2.948,3.369-6.57,7.918-18.7,27.038-49.865,32.934-53.739a13.359,13.359,0,0,1,14.909-.168c5.812,3.79,18.531,24.006,29.481,46.832,3.538,7.244,6.486,13.309,6.57,13.477.168.168,3.538-2.443,7.665-5.643,10.023-8.086,21.058-15.33,25.438-16.846,4.549-1.432,8.929-.337,13.14,3.369,3.875,3.369,5.728,7.665,8.844,20.552,2.443,10.445,6.823,35.714,6.823,39.841,0,1.516.337,1.853,1.6,1.432,4.464-1.432,14.319-3.032,23.416-3.875l10.192-1.011,2.7-10.192a197.566,197.566,0,0,0,6.486-40.094c.59-11.708-.084-15.162-3.706-19.373-4.38-5.222-12.887-5.9-36.388-2.864-5.307.674-10.024,1.1-10.613.842-.59-.169-1.348-2.527-1.685-5.138-.674-5.391-3.875-19.036-6.4-27.544-3.2-10.529-7.833-14.993-15.667-14.993-3.706,0-5.9.674-12.3,3.875-4.212,2.19-10.95,5.98-14.825,8.507s-7.328,4.3-7.749,3.875c-.337-.337-2.78-4.212-5.391-8.423-9.771-16.257-22.405-32.345-27.8-35.377A14.539,14.539,0,0,0,733.543-608.383Z" transform="translate(-816 336)"/><path class="b" d="M755.131-522.338c-19.542,30.66-32.682,61.489-38.915,91.391-1.685,8.17-4.633,29.144-4.127,29.649.168.084,5.475-.084,11.708-.59,11.371-.842,74.966-.337,81.03.674l3.117.505-.421-4.464c-3.285-31.334-12.887-62.078-28.891-92.991-6.317-12.214-16.594-29.06-18.447-30.239C759.68-528.656,757.49-525.96,755.131-522.338Z" transform="translate(-835.23 323.153)"/><path class="b" d="M668.359-476.478c-3.622,13.477-8.844,42.621-8.17,45.822.168.758,3.369,2.611,7.833,4.464,4.212,1.685,10.613,4.717,14.235,6.654a63.625,63.625,0,0,0,6.823,3.285c.084-.084,1.011-4.3,2.022-9.35,1.011-4.97,3.2-13.73,4.885-19.373,1.6-5.559,3.117-10.95,3.285-11.877.253-1.263-1.263-2.948-6.149-6.823-7.075-5.475-15.583-11.54-20.637-14.572L669.37-480.1Z" transform="translate(-827.046 315.533)"/><path class="b" d="M851.527-476.4a206.675,206.675,0,0,0-21.31,16l-3.117,2.864,3.706,12.719c2.022,6.991,4.3,15.92,5.054,19.794s1.516,7.581,1.685,8.086c.253.758,2.443-.084,6.739-2.358,3.453-1.853,9.855-4.885,14.151-6.654l7.749-3.2-.169-4.717c-.337-8.676-6.486-41.1-8.507-44.811C857-479.515,855.739-479.094,851.527-476.4Z" transform="translate(-853.375 315.37)"/><path class="b" d="M614.737-403.883a119.743,119.743,0,0,0,17.015,22.574l6.907,7.328,11.54-2.19c6.4-1.179,15.583-2.611,20.468-3.2,8.255-1.011,8.844-1.179,8.844-2.864,0-5.812-32.008-19.373-55.677-23.5-3.875-.674-7.918-1.263-9.013-1.263H612.8Z" transform="translate(-819.582 304.006)"/><path class="b" d="M897.8-405.231c-17.436,3.706-31.924,9.1-45.569,16.846-5.307,3.032-6.233,3.959-6.233,5.812,0,2.274.084,2.274,10.782,3.706,5.9.842,14.656,2.274,19.457,3.2l8.844,1.769,6.4-6.654a123.043,123.043,0,0,0,16.762-22.069l2.527-4.38-2.7.084A74.506,74.506,0,0,0,897.8-405.231Z" transform="translate(-856.355 304.006)"/><path class="a" d="M279.5-264.4c-15.9,3.6-30.6,4.5-81,5.1-27.5.3-50.2.7-50.3.8-.2.2,1.2,3,3,6.2,3.3,5.6,3.6,5.8,7.4,5.6,2.1-.1,17.1-.5,33.2-.9l29.2-.7V-232H140v11h33.8l33.7.1-5.5,5c-15.9,14.5-38,25.7-65.8,33.5-.9.3-.6,1.3,1.1,3.6a28.278,28.278,0,0,1,3.7,7.1c1.4,4.5,1.5,4.5,15.1-.9,4.8-1.9,8.9-3.4,9.3-3.4.3,0,.6,2,.6,4.5v4.5l44.3.2,44.2.3L239.8-160,225-153.5V-137H140v11h85.1l-.3,16.5c-.2,11.8-.7,16.8-1.6,17.7s-4.5,1.2-12.7,1.1L199-90.9l2,3.7a19.632,19.632,0,0,1,2,7.9V-75h6.3c12.2,0,22.8-4.1,26.6-10.4,1.9-3.1,2.1-4.9,2.1-22V-126h82v-11H237.9l.3-3.7.3-3.8,20.5-9.2c11.3-5.1,22.9-9.8,25.9-10.4l5.3-1.1-.6-3.6a54.827,54.827,0,0,1-.6-6V-177H235v-21.5c0-11.8.4-21.5.8-21.5s2.6,1.8,4.7,4.1c10.1,10.4,28.2,23.2,44.8,31.8,8.6,4.4,23.4,10.1,26.3,10.1.5,0,1.5-1.5,2.2-3.3a19.526,19.526,0,0,1,3.8-6c1.4-1.6,2.4-3,2.3-3.2-.2-.1-3.9-1.3-8.2-2.5a142.972,142.972,0,0,1-54.1-27.9l-4.8-4.1h62.7v-11H235v-16h9.8c13.3,0,43.5-1.9,44.3-2.8,1-1.1-1.4-15.2-2.5-15.1C286-265.8,282.8-265.2,279.5-264.4Zm-58.8,87.1c-.2.2-12.1.2-26.3.1l-25.9-.3,8-4.3A245.736,245.736,0,0,0,212-206.1l8.5-7.1.3,17.8C220.9-185.7,220.9-177.5,220.7-177.3Z"/><path class="a" d="M365.5-260.8c-1.6,2.3-3.3,4.7-3.7,5.3-.5.7,3.5,4.4,10.7,9.8,6.3,4.8,11.6,8.7,11.8,8.7.3,0,2.3-2.4,4.5-5.4l4.1-5.4-11.3-8.6c-6.2-4.7-11.7-8.6-12.2-8.6S367.2-263.1,365.5-260.8Z"/><path class="a" d="M1334.8-214.5l.5,49.5H1301v89h14.9l-.6-8-.6-8h58.2l.3,7.7.3,7.8,6.8.3,6.7.3V-165h-39v-45h51v-10.6l-25.6.4-25.7.4.5-22.1.5-22.1h-14.4Zm38.2,86V-102h-58v-53h58Z"/><path class="a" d="M913-168.3V-76h14l.2-28.2.3-28.3,20.8.3,20.7.3V-142H927v-28h34v-10H927v-33h36v-10H927v-37.5H913Z"/><path class="a" d="M1048.6-258.3c-2.9,12-14,36.5-21.5,47.7-5.8,8.5-19.8,25-28.5,33.5l-5.5,5.4,4.3,2.7a38.749,38.749,0,0,1,6.5,5.1l2.3,2.4,6.6-7c8.6-9.2,20.4-25.1,27.8-37.5l5.9-9.9,54.8-.1H1156v59.7c0,46.2-.3,60.4-1.3,62.3-1.2,2.4-1.6,2.5-13.5,2.8l-12.2.3,2,2.7c1.3,1.7,2.3,5.1,2.7,8.5l.6,5.7h5.3c10.7,0,21.3-3.5,25.7-8.6,4.5-5.2,4.5-5.4,4.6-77.2l.1-68.2H1053.1l5.9-12.3c3.2-6.7,6-12.8,6.2-13.5.2-.9-2.5-2.4-7.7-4.3-4.4-1.5-8.1-2.9-8.1-2.9A9.552,9.552,0,0,0,1048.6-258.3Z"/><path class="a" d="M1243.7-242.5l.6,17.5H1215v42.8c0,23.6-.3,46.9-.6,51.8l-.7,8.9h18.2l-.1-46.8c-.2-33.7.1-47,.9-47.5.6-.4,3.3-.7,6-.6l4.8.1V-74H1261v-71c0-46.6.3-71,1-71.1.6,0,3.1-.1,5.8-.2l4.7-.1v79.9l-4.7-.1H1263c0,.1.7,2.3,1.5,5a36.009,36.009,0,0,1,1.5,7.8c0,2.4.4,2.8,2.8,2.8,7.2-.2,16.3-5.6,19.2-11.6,1.9-3.8,2-6.2,2-48.2V-225h-29v-35h-18Z"/><path class="a" d="M732-175.6c0,79.7-.1,82.5-1.9,84.7s-2.6,2.4-12.3,2.4H707.5l1.7,3.5a21.239,21.239,0,0,1,1.8,8.4v4.9l7.3-.6c15.2-1.3,23.4-6,25.6-14.5.6-2.2,1.1-37.2,1.3-87.5l.3-83.7H732Z"/><path class="a" d="M825-249.2c-3.4,12.9-8.7,27.8-12.6,35.2-5.1,9.7-15.4,22.9-26.6,34-8.9,8.8-9.7,9.9-7.8,10.5,1.2.4,4,2.5,6.2,4.7l4.1,4.1,6.6-6.9c3.7-3.8,8.3-8.9,10.4-11.4l3.7-4.5-.2,54.8L808.5-74H822v-65.5c0-55.6.2-65.9,1.4-67.8,3.7-5.6,18.6-42.3,18.6-45.7,0-.5-1.7-1.2-3.7-1.6a62.1,62.1,0,0,1-7.4-2l-3.6-1.2Z"/><path class="a" d="M874.8-240.1l.5,16.4-15.5-.5-15.5-.5-.1,5.1v5.2l15.4-.4,15.4-.4v35.3l-15.5-.3-15.5-.3V-170l15.3-.3,15.2-.2.3,16.7L875-137H842v10h33.2l-.4,25.5L874.5-76h14V-256.6H874.4Z"/><path class="a" d="M429-251.5v4.5h34.1l-.7,4.7c-.3,2.7-1.1,9.1-1.7,14.3l-1.2,9.5-14,.3-14,.3-.1,4.6-.1,4.6,13.4-.5c8.4-.4,13.3-.2,13.3.4,0,1.7-4,32.2-4.5,34.5s-.8,2.3-16,2.3H422v9H538v-8.9l-12.2-.3-12.3-.3v-45l-20.8-.3-20.8-.2.5-2.8c.3-1.5,1-7,1.6-12.2s1.3-10.5,1.6-11.8l.4-2.2h50v-9H429Zm71.8,60.7L501-172H483.5c-9.6,0-17.5-.1-17.5-.3,0-.1,1.1-8.5,2.5-18.7s2.5-18.6,2.5-18.8c0-.1,6.6-.1,14.8,0l14.7.3Z"/><path class="a" d="M584-221.5V-188h14v-4c0-3.8.2-4,3-4h3v25.6c0,27.5-.9,36.1-4.7,46.7-5.3,14.8-16.2,28.3-27.7,34.3-3.1,1.6-5.6,3.1-5.6,3.4s1.6,1.4,3.6,2.5a14.869,14.869,0,0,1,5.2,4.7c2,3.4,2.5,3.4,6.5.6a81.528,81.528,0,0,0,27.3-32.3c5.6-11.7,8.3-23,9.1-38.3l.6-12.2,15.6.2,15.6.3v33.7c0,26.5-.3,34-1.3,35-1,.9-4.7,1.3-13.2,1.2l-11.9-.1,2.1,2.8c1.4,1.8,2.3,4.9,2.6,8.5l.5,5.7,7.6-.7c10-.9,13.7-2,19.2-5.4,8-5.1,7.9-4.4,7.9-50.6V-171H618v-25h30v8h14v-67H584Zm64-4.5v19H598v-38h50Z"/><path class="a" d="M348-231.5v4.5h68v-9H348Z"/><path class="a" d="M692.5-177v53h14V-230h-14Z"/><path class="a" d="M353-201.5v4.5h56v-9H353Z"/><path class="a" d="M1047-153v38h15v-15h41v15h14v-76h-70Zm56-7.5V-142h-41v-37h41Z"/><path class="a" d="M353.4-171.5l-.1,4.5h55.2v-9h-55Z"/><path class="a" d="M351-125.8c0,10.1-.3,25.8-.7,35L349.7-74h14.5l-.3-8.3-.4-8.2,17.3-.3L398-91v17h13v-70H351Zm47,8.8v19l-17.2-.2-17.3-.3-.3-18.8L363-136h35Z"/><path class="a" d="M438-120.3c0,13.1-.3,28.4-.7,34L436.7-76H451V-90h56v14h12v-68H438Zm69,3.8V-98H450v-37h57Z"/></g></svg>