<svg width="591" height="118" viewBox="0 0 591 118" fill="none" xmlns="http://www.w3.org/2000/svg">
<path d="M44.1291 26.4631C42.4717 27.2125 38.2505 32.4325 35.2205 37.5233C34.7007 38.4415 34.1301 39.3301 33.5113 40.185C32.6489 39.7192 31.8105 39.2103 30.9993 38.6604C26.9594 36.102 24.5768 35.0167 22.9712 35.0167C20.4592 35.0167 19.1384 36.3863 17.9731 40.1592C17.1703 42.8209 16.0567 47.5499 16.0567 48.4544C16.0308 49.7982 15.8754 49.8498 12.5347 49.4105C3.83326 48.2735 1.632 48.687 0.388936 51.6071C-0.569257 53.9587 0.440724 63.4943 2.35711 69.7997L2.90096 71.6344L6.06041 71.9445C8.8314 72.2029 11.8613 72.6939 13.2339 73.1332C13.6482 73.2624 13.7259 73.1591 13.7259 72.4614C13.7259 70.3423 15.4869 61.1685 16.6005 57.4473C17.5328 54.3205 19.7341 52.5374 22.1684 53.0025C23.4891 53.2351 28.0729 56.3103 31.3101 59.1012C31.7045 59.4746 32.1387 59.8039 32.6049 60.0832C32.7085 60.0832 33.1747 59.1787 33.6408 58.0675C36.0751 52.3306 41.9538 42.7692 43.7666 41.5805C44.4389 41.1182 45.2341 40.8663 46.0506 40.8571C46.867 40.8479 47.6677 41.0818 48.3504 41.5288C50.1373 42.6917 54.0477 48.8937 57.4143 55.8968C58.502 58.1192 59.4084 59.9798 59.4343 60.0315C59.4861 60.0832 60.522 59.2821 61.7909 58.3001C64.8727 55.8193 68.2652 53.5969 69.6119 53.1317C71.0103 52.6924 72.357 53.0284 73.6518 54.1654C74.8431 55.1991 75.4128 56.517 76.371 60.4708C77.122 63.6752 78.4687 71.4277 78.4687 72.6939C78.4687 73.1591 78.5723 73.2624 78.9607 73.1332C80.3333 72.6939 83.3632 72.2029 86.1601 71.9445L89.2937 71.6344L90.1224 68.5076C91.2088 64.4866 91.877 60.3646 92.1165 56.2069C92.2977 52.6149 92.0906 51.5554 90.977 50.2633C89.6303 48.6611 87.0147 48.4544 79.7894 49.3847C78.1579 49.5914 76.7077 49.7206 76.5264 49.6431C76.3451 49.5914 76.1121 48.8678 76.0085 48.0668C75.8013 46.4129 74.8172 42.2265 74.0403 39.6165C73.0562 36.3863 71.6319 35.0167 69.2234 35.0167C68.0839 35.0167 67.4106 35.2234 65.4424 36.2054C64.1476 36.8773 62.0758 38.0402 60.8845 38.8154C59.6933 39.5907 58.6315 40.1333 58.502 40.0041C58.3984 39.9008 57.6474 38.712 56.8446 37.42C53.8405 32.4325 49.956 27.4967 48.2986 26.5664C47.0296 25.8429 45.5535 25.817 44.1291 26.4631Z" fill="#40356F"/>
<path d="M44.8543 48.9195C38.8461 58.3259 34.8062 67.784 32.8898 76.9578C32.3718 79.4645 31.4654 85.8991 31.6208 86.0541C31.6726 86.08 33.3041 86.0283 35.2205 85.8732C38.7166 85.6148 58.269 85.7699 60.1335 86.08L61.0917 86.235L60.9623 84.8654C59.9523 75.2523 57 65.82 52.0795 56.3361C50.1373 52.5891 46.9778 47.4207 46.4081 47.0589C46.2527 46.9814 45.5794 47.8083 44.8543 48.9195Z" fill="#645FCE"/>
<path d="M20.6923 60.6517C19.5787 64.7864 17.9731 73.7276 18.1803 74.7096C18.2321 74.9422 19.2161 75.5107 20.5887 76.0792C21.8835 76.596 23.8517 77.5263 24.9653 78.1207C25.6439 78.4979 26.3443 78.8345 27.063 79.1285C27.0889 79.1027 27.3737 77.8106 27.6845 76.2601C27.9953 74.7354 28.6686 72.0479 29.1865 70.3165C29.6786 68.611 30.1447 66.9571 30.1965 66.6728C30.2742 66.2852 29.8081 65.7684 28.306 64.5796C26.1307 62.8999 23.5151 61.0393 21.9612 60.109L21.003 59.5405L20.6923 60.6517Z" fill="#645FCE"/>
<path d="M68.9127 60.6258C66.6251 62.1201 64.4366 63.7602 62.3607 65.5358L61.4025 66.4144L62.542 70.3165C63.1635 72.4614 63.8628 75.2006 64.0958 76.3893C64.3289 77.578 64.562 78.7151 64.6138 78.8701C64.6915 79.1027 65.3648 78.8443 66.6856 78.1465C67.7473 77.578 69.7155 76.6477 71.0363 76.105L73.4188 75.1231L73.367 73.6759C73.2634 71.0142 71.3729 61.0651 70.7514 59.9281C70.596 59.6697 70.2076 59.7989 68.9127 60.6258Z" fill="#645FCE"/>
<path d="M6.50059 79.3869C8.2098 82.2037 9.78952 84.3227 11.7318 86.3125L13.8554 88.5608L17.4033 87.8889C19.3715 87.5271 22.1942 87.0878 23.6963 86.9069C26.2342 86.5968 26.4155 86.5451 26.4155 86.0283C26.4155 84.2452 16.5746 80.0847 9.29749 78.8184C8.10622 78.6117 6.86316 78.4308 6.5265 78.4308H5.90496L6.50059 79.3869Z" fill="#645FCE"/>
<path d="M82.2237 78.9735C76.863 80.1105 72.4087 81.7644 68.2134 84.1418C66.5819 85.0721 66.297 85.3564 66.297 85.9249C66.297 86.6226 66.3229 86.6226 69.6119 87.0619C71.4246 87.3204 74.118 87.7597 75.5941 88.0439L78.3133 88.5866L80.2815 86.5451C82.2493 84.4891 83.9781 82.2179 85.435 79.7746L86.2119 78.4308L85.3832 78.4566C84.3193 78.5552 83.2635 78.7279 82.2237 78.9735Z" fill="#645FCE"/>
<path d="M161.644 61.08H138.364C136.764 61.1333 135.511 61.3467 134.604 61.72C133.698 62.0933 133.138 62.3067 132.924 62.36C132.711 62.36 132.498 62.2533 132.284 62.04L128.924 59.08C128.818 58.76 128.978 58.52 129.404 58.36C132.498 58.8933 136.924 59.1867 142.684 59.24C148.444 59.24 154.898 59.24 162.044 59.24C164.924 56.8933 166.631 55.72 167.164 55.72H167.244C170.764 59.0267 172.524 61.3733 172.524 62.76C167.724 65.0533 162.178 66.6533 155.884 67.56C156.578 67.7733 156.924 68.0133 156.924 68.28C156.924 68.5467 156.498 68.92 155.644 69.4C154.844 69.88 154.444 70.3867 154.444 70.92V72.12H173.964C174.284 72.12 174.951 71.64 175.964 70.68C177.031 69.6667 177.724 68.9467 178.044 68.52C178.364 68.04 178.818 67.8 179.404 67.8C180.044 67.8 180.578 67.9867 181.004 68.36C185.271 71.9333 187.404 73.7467 187.404 73.8C187.404 74.0667 186.791 74.2 185.564 74.2H154.444V88.44C154.444 89.6667 153.911 90.92 152.844 92.2C151.778 93.5333 150.738 94.2 149.724 94.2C148.764 94.2 148.018 93.96 147.484 93.48C143.644 89.8 139.138 87.88 133.964 87.72C133.218 87.5067 132.844 87.1867 132.844 86.76C132.844 86.3333 133.191 86.04 133.884 85.88L148.204 87.24L148.764 85.88V74.2H122.444C120.844 74.3067 119.538 74.5467 118.524 74.92C117.564 75.24 117.031 75.3733 116.924 75.32C114.684 73.6667 113.378 72.4667 113.004 71.72C113.004 71.4 113.138 71.24 113.404 71.24C116.498 71.7733 120.231 72.0667 124.604 72.12H148.764V70.68C148.764 69.88 148.684 69.08 148.524 68.28C148.364 67.4267 148.311 66.92 148.364 66.76C148.471 66.5467 148.711 66.44 149.084 66.44C149.458 66.44 150.364 66.5733 151.804 66.84C156.018 64.9733 159.298 63.0533 161.644 61.08ZM153.484 49.64C153.751 51.4 153.884 52.9733 153.884 54.36C153.884 55.6933 151.964 56.36 148.124 56.36C147.218 56.36 146.684 55.72 146.524 54.44L146.924 49.64V46.12C136.258 53.2133 125.724 57.9867 115.324 60.44C114.898 60.5467 114.498 60.6 114.124 60.6C113.804 60.6 113.644 60.44 113.644 60.12C113.644 58.9467 114.258 58.1733 115.484 57.8C125.084 54.44 134.498 48.6533 143.724 40.44H123.404C121.804 40.4933 120.524 40.7067 119.564 41.08C118.658 41.4533 118.098 41.64 117.884 41.64L114.044 38.36C113.884 38.2 113.804 37.9867 113.804 37.72C113.804 37.4533 114.018 37.3733 114.444 37.48C117.538 38.0133 121.271 38.3067 125.644 38.36H146.924V31.24C135.778 32.36 127.084 32.9733 120.844 33.08C119.831 32.5467 119.431 32.04 119.644 31.56C119.858 31.0267 120.498 30.6267 121.564 30.36C144.284 28.7067 160.418 25.8267 169.964 21.72C175.458 25.8267 178.204 28.3333 178.204 29.24C178.204 29.3467 178.178 29.4267 178.124 29.48L173.084 28.28C165.938 29.1867 159.378 29.96 153.404 30.6V38.36H174.684L179.404 32.84C184.471 37.32 187.004 39.6133 187.004 39.72C187.004 40.2 186.391 40.44 185.164 40.44L156.204 40.52C162.924 46.44 173.724 50.5733 188.604 52.92L183.084 60.28C169.644 55.2667 159.778 49.32 153.484 42.44V49.64ZM213.564 23.72L219.244 29.64C219.244 29.8533 218.604 30.0133 217.324 30.12H206.044L199.884 30.6L197.084 27.08C201.244 27.6133 203.618 27.9333 204.204 28.04H208.844L213.564 23.72ZM216.364 53.72L222.044 59.64C222.044 59.8533 221.404 60.0133 220.124 60.12H203.324L196.764 60.52L194.364 57.08C198.311 57.6133 200.871 57.9333 202.044 58.04H211.644L216.364 53.72ZM216.364 43.32L222.044 49.24C222.044 49.4533 221.404 49.6133 220.124 49.72H203.324L197.004 50.2L194.364 46.68C196.498 47.2133 198.978 47.5333 201.804 47.64H211.644L216.364 43.32ZM221.004 39.56H200.044L195.644 39.96L192.204 36.92C193.698 37.2933 195.004 37.48 196.124 37.48C197.244 37.48 198.151 37.4533 198.844 37.4H213.324L218.044 33.08C221.511 36.7067 223.244 38.7067 223.244 39.08C223.244 39.4533 222.951 39.64 222.364 39.64C221.778 39.64 221.324 39.6133 221.004 39.56ZM212.924 71H202.764C202.764 71.8533 202.738 72.3067 202.684 72.36V84.52H213.404V73.24C213.404 72.2267 213.244 71.48 212.924 71ZM203.644 69.32H211.484L215.324 64.92C219.804 67.9067 222.044 69.72 222.044 70.36L219.804 73.24V81.4L220.284 88.12C220.178 89.1867 218.578 89.72 215.484 89.72H214.604C213.644 89.6667 213.164 89.08 213.164 87.96C213.164 87.5333 213.218 87.0267 213.324 86.44H202.764C202.978 88.52 203.084 90.3067 203.084 91.8C203.084 93.3467 201.084 94.12 197.084 94.12C196.124 94.12 195.591 93.48 195.484 92.2L195.884 84.28V71.72C195.884 69.8533 195.751 68.68 195.484 68.2C195.378 68.04 195.324 67.8 195.324 67.48C195.324 67.0533 195.458 66.52 195.724 65.88L203.644 69.32ZM254.124 71.32C254.124 70.84 253.964 70.3867 253.644 69.96H233.884V84.68H254.124V71.32ZM234.684 67.96H251.804C252.498 67.64 253.404 66.7867 254.524 65.4C255.644 64.0133 256.338 63.32 256.604 63.32C256.924 63.32 258.204 64.1733 260.444 65.88C262.738 67.5867 263.884 68.8933 263.884 69.8C263.884 70.0667 263.324 70.6 262.204 71.4C261.084 72.2 260.524 72.84 260.524 73.32V84.36L261.004 92.52C260.844 93.5867 258.951 94.12 255.324 94.12C254.951 94.12 254.604 93.9333 254.284 93.56C253.964 93.1867 253.804 92.5733 253.804 91.72C253.804 90.8667 253.884 89.24 254.044 86.84H234.044C234.258 88.8667 234.364 90.3067 234.364 91.16V92.52C234.204 93.5867 232.311 94.12 228.684 94.12C227.671 94.12 227.164 93.4533 227.164 92.12L227.484 84.36V68.36L227.084 64.76C227.031 64.44 227.164 64.28 227.484 64.28C227.804 64.28 228.871 64.84 230.684 65.96C232.551 67.0267 233.884 67.6933 234.684 67.96ZM266.364 60.12H229.484C226.764 60.12 224.844 60.2533 223.724 60.52L221.324 57.08C222.498 57.6667 224.818 57.96 228.284 57.96H232.684L235.324 43.24H230.844L226.044 43.88C224.444 41.7467 223.644 40.6533 223.644 40.6C223.751 40.3867 223.831 40.3333 223.884 40.44C223.938 40.4933 224.018 40.52 224.124 40.52C224.231 40.52 225.271 40.6533 227.244 40.92C229.218 41.1867 232.044 41.3467 235.724 41.4L238.044 29.8H230.604C227.884 29.8 225.964 29.9333 224.844 30.2L222.444 26.76C223.618 27.3467 225.938 27.64 229.404 27.64H254.204C255.378 26.4667 256.818 25.08 258.524 23.48C262.578 26.2533 264.604 28.0133 264.604 28.76C264.604 29.3467 264.018 29.6933 262.844 29.8H244.924L242.604 41.32C244.684 41.32 246.738 41.32 248.764 41.32C249.511 41 250.444 40.2267 251.564 39C252.684 37.72 253.404 37.08 253.724 37.08C254.684 37.08 256.098 37.8 257.964 39.24C259.831 40.68 260.764 41.72 260.764 42.36C260.764 42.6267 260.231 43.16 259.164 43.96C258.098 44.7067 257.564 45.3467 257.564 45.88L256.924 57.96H259.004C260.444 56.36 261.751 54.9733 262.924 53.8C266.444 56.5733 268.204 58.3333 268.204 59.08C268.204 59.6667 267.591 60.0133 266.364 60.12ZM250.844 57.96C251.324 48.7867 251.564 44.2 251.564 44.2C251.564 44.04 251.431 43.72 251.164 43.24H242.204L239.484 57.96H250.844ZM303.884 49.4H294.924C294.658 53.56 294.258 57.4267 293.724 61H302.764L307.724 56.76C311.031 58.6267 313.058 60.3867 313.804 62.04L311.244 65.56C311.031 73.08 310.364 80.44 309.244 87.64C307.804 91.64 304.818 93.6667 300.284 93.72L297.244 91.24C294.684 89.16 291.244 88.04 286.924 87.88C286.178 87.56 285.804 87.24 285.804 86.92C285.804 86.5467 286.124 86.1467 286.764 85.72L299.324 87C300.711 87 301.884 86.4133 302.844 85.24C304.178 76.76 304.951 69.8 305.164 64.36C305.058 63.9333 304.898 63.5867 304.684 63.32H293.324C290.444 78.84 284.418 89.0267 275.244 93.88C274.924 94.04 274.578 94.12 274.204 94.12C273.404 94.12 273.004 93.6667 273.004 92.76C273.004 92.3867 273.298 91.96 273.884 91.48C283.164 83.2133 287.804 69.8267 287.804 51.32C287.804 50.68 287.804 50.04 287.804 49.4H284.364L284.684 51.72C284.684 52.7867 282.791 53.32 279.004 53.32C278.098 53.32 277.564 52.68 277.404 51.4L277.804 47.16V31C277.804 29.1333 277.671 27.96 277.404 27.48C277.138 27 277.218 26.2267 277.644 25.16L285.884 28.6H301.564C302.258 28.28 303.164 27.48 304.284 26.2C305.458 24.8667 306.231 24.2 306.604 24.2C307.511 24.2 308.924 25.0267 310.844 26.68C312.818 28.3333 313.804 29.6133 313.804 30.52L310.444 33.4V47.16L310.924 51.72C310.818 52.7867 308.898 53.32 305.164 53.32C304.098 53.32 303.564 52.7067 303.564 51.48C303.564 50.68 303.671 49.9867 303.884 49.4ZM303.484 30.68H284.364C284.364 31.2667 284.338 31.5867 284.284 31.64V47.32H303.964V32.52C303.964 31.7733 303.804 31.16 303.484 30.68ZM338.124 85.64V27.48L337.724 23.88C337.671 23.5067 337.938 23.32 338.524 23.32C339.111 23.32 340.658 23.5333 343.164 23.96C345.724 24.3333 347.004 24.7333 347.004 25.16C347.004 25.4267 346.578 25.8 345.724 26.28C344.924 26.7067 344.524 27.1867 344.524 27.72V88.12C344.524 92.12 341.831 94.12 336.444 94.12L333.324 91.64C330.764 89.6133 326.764 88.4933 321.324 88.28C320.578 87.96 320.204 87.64 320.204 87.32C320.204 86.9467 320.524 86.5467 321.164 86.12L334.444 87.4C336.898 87.2933 338.124 86.7067 338.124 85.64ZM319.644 69.16V31.32L319.244 27.72C319.191 27.3467 319.458 27.16 320.044 27.16C320.631 27.16 322.178 27.3733 324.684 27.8C327.244 28.1733 328.524 28.5733 328.524 29C328.524 29.2667 328.098 29.64 327.244 30.12C326.444 30.5467 326.044 31.0267 326.044 31.56V69.16C326.311 72.6267 326.444 74.8133 326.444 75.72C326.444 77 324.578 77.64 320.844 77.64C320.471 77.64 320.124 77.4533 319.804 77.08C319.484 76.7067 319.298 76.2533 319.244 75.72L319.644 69.16ZM373.484 95.4C372.738 95.4 372.364 94.8933 372.364 93.88C372.364 93.4533 372.551 93.0267 372.924 92.6C380.658 88.3867 385.511 81.5867 387.484 72.2C382.364 74.76 378.284 76.4667 375.244 77.32C374.924 79.7733 374.551 81 374.124 81C372.951 81 371.244 77.96 369.004 71.88C374.444 71.1333 380.871 69.56 388.284 67.16C388.444 65.4 388.524 63.5333 388.524 61.56V55.96H381.644C379.831 56.0133 378.604 56.2267 377.964 56.6C377.324 56.92 376.711 57.24 376.124 57.56L372.284 53.88C372.124 53.72 372.044 53.5067 372.044 53.24C372.044 52.9733 372.258 52.8933 372.684 53C375.778 53.5333 379.511 53.8267 383.884 53.88H388.524V40.44H380.204C378.604 40.4933 377.324 40.7067 376.364 41.08C375.458 41.4533 374.898 41.64 374.684 41.64L370.844 38.36C370.684 38.2 370.604 37.9867 370.604 37.72C370.604 37.4533 370.818 37.3733 371.244 37.48C374.338 38.0133 378.071 38.3067 382.444 38.36H388.524V27.48L388.204 23.96C388.151 23.5867 388.338 23.4 388.764 23.4C388.978 23.4 390.471 23.6133 393.244 24.04C396.018 24.4133 397.404 24.7867 397.404 25.16L394.924 27.72V64.92C396.524 64.3333 397.964 63.8 399.244 63.32C400.524 62.84 401.378 62.6 401.804 62.6C402.231 62.6 402.471 62.76 402.524 63.08C402.578 63.4 402.444 63.8 402.124 64.28C399.511 65.7733 397.084 67.16 394.844 68.44C393.884 80.9733 387.164 89.8267 374.684 95C374.044 95.2667 373.644 95.4 373.484 95.4ZM403.484 84.84V27.48L403.164 23.96C403.111 23.5867 403.298 23.4 403.724 23.4C404.151 23.4 405.698 23.6133 408.364 24.04C411.031 24.4133 412.364 24.7867 412.364 25.16L409.884 27.72V38.2H416.924C418.684 36.3867 420.444 34.5733 422.204 32.76C426.204 35.8533 428.204 37.88 428.204 38.84C428.204 39.8 427.324 40.28 425.564 40.28H409.884V53.72H415.324C417.084 51.9067 418.844 50.0933 420.604 48.28C424.604 51.3733 426.604 53.4 426.604 54.36C426.604 55.32 425.724 55.8 423.964 55.8H409.884V69.88H418.124C419.884 68.0667 421.644 66.2533 423.404 64.44C427.404 67.5333 429.404 69.56 429.404 70.52C429.404 71.48 428.524 71.96 426.764 71.96H409.884V85.64L410.364 91.64C410.364 91.7467 410.338 92.04 410.284 92.52C410.178 93.5867 408.311 94.12 404.684 94.12C403.618 94.12 403.084 93.2667 403.084 91.56C403.084 89.9067 403.218 87.6667 403.484 84.84ZM354.124 64.12C353.644 64.3333 353.244 64.44 352.924 64.44C352.178 64.44 351.804 63.9067 351.804 62.84C351.804 62.4667 352.018 61.9867 352.444 61.4C358.098 51.32 362.764 38.0667 366.444 21.64C372.951 22.6533 376.204 23.8533 376.204 25.24L372.284 26.68C370.898 32.6 369.084 37.4267 366.844 41.16C369.244 41.48 370.444 41.8 370.444 42.12C370.444 42.44 370.018 42.84 369.164 43.32C368.364 43.7467 367.964 44.2267 367.964 44.76V85.72C368.231 89.0267 368.364 91.32 368.364 92.6C368.364 93.6667 366.711 94.2 363.404 94.2C362.284 94.2 361.671 93.56 361.564 92.28L361.964 85.72V52.04C359.564 56.52 356.951 60.5467 354.124 64.12ZM451.804 46.84L458.364 49.64H471.564L476.444 45.4C476.711 45.4 477.911 46.2533 480.044 47.96C482.178 49.6667 483.244 50.9733 483.244 51.88L480.284 55.4V70.04L480.764 76.52C480.604 77.5867 478.711 78.12 475.084 78.12C474.071 78.12 473.564 77.5867 473.564 76.52L473.804 72.92H456.924C457.138 74.9467 457.244 77.4267 457.244 80.36C457.084 81.4267 455.191 81.96 451.564 81.96C451.511 82.0133 451.458 82.04 451.404 82.04C451.138 82.04 450.684 81.3467 450.044 79.96L450.364 70.04V50.44L450.284 49.4C446.871 54.52 442.818 60.0667 438.124 66.04C437.698 66.2 437.324 66.28 437.004 66.28C436.418 66.28 436.124 65.9867 436.124 65.4C436.124 64.76 436.258 64.1467 436.524 63.56C446.871 48.04 453.004 34.3333 454.924 22.44C463.351 25 467.564 26.7067 467.564 27.56C467.564 28.1467 466.791 28.44 465.244 28.44C463.751 28.44 462.338 28.3867 461.004 28.28C460.311 30.3067 459.484 32.4133 458.524 34.6H492.844C493.538 34.28 494.444 33.5067 495.564 32.28C496.738 31 497.484 30.36 497.804 30.36C498.711 30.36 500.071 31.08 501.884 32.52C503.698 33.96 504.604 35 504.604 35.64C504.604 35.9067 504.044 36.44 502.924 37.24C501.858 37.9867 501.324 38.6267 501.324 39.16C501.324 40.9733 501.324 44.0667 501.324 48.44C501.324 52.76 501.191 58.9733 500.924 67.08C500.658 75.1333 499.111 82.12 496.284 88.04C494.258 92.0933 490.738 94.12 485.724 94.12L482.604 91.64C480.044 89.6133 476.044 88.4933 470.604 88.28C469.858 87.96 469.484 87.64 469.484 87.32C469.484 86.9467 469.804 86.5467 470.444 86.12L486.364 87.4C487.751 87.4 488.924 86.8133 489.884 85.64C492.018 81.16 493.351 76.2533 493.884 70.92C494.471 65.5867 494.924 54.7333 495.244 38.36C495.138 37.9333 494.978 37.5867 494.764 37.32H457.244C455.751 40.3067 453.938 43.48 451.804 46.84ZM473.884 53.4C473.884 52.92 473.724 52.4667 473.404 52.04H456.764V70.52H473.884V53.4ZM579.884 33.16C584.951 36.4133 587.484 38.52 587.484 39.48C587.484 40.0133 586.871 40.28 585.644 40.28H567.564V59.72H575.484C576.178 59.4 577.084 58.6267 578.204 57.4C579.378 56.1733 580.151 55.56 580.524 55.56C581.431 55.56 582.844 56.4133 584.764 58.12C586.738 59.7733 587.724 61.0533 587.724 61.96C587.724 62.28 587.164 62.76 586.044 63.4C584.924 64.04 584.364 64.52 584.364 64.84V85.64C584.684 89.9067 584.844 92.2267 584.844 92.6C584.738 93.5067 582.818 94.04 579.084 94.2C579.031 94.2 579.004 94.2 579.004 94.2C577.991 94.2 577.484 93.5067 577.484 92.12C577.484 90.7867 577.591 89.3733 577.804 87.88H553.404L553.724 92.28C553.724 93.56 551.831 94.2 548.044 94.2C547.084 94.2 546.551 93.56 546.444 92.28L546.844 85.64V60.76L546.444 56.92C546.391 56.6533 546.471 56.52 546.684 56.52L554.764 59.72H561.084V26.92C561.084 25.3733 561.004 24.28 560.844 23.64C560.684 23 560.818 22.68 561.244 22.68C561.991 22.68 563.618 22.8933 566.124 23.32C568.684 23.6933 569.964 24.0933 569.964 24.52C569.964 24.7867 569.564 25.16 568.764 25.64C567.964 26.12 567.564 26.6267 567.564 27.16V38.28H575.324L579.884 33.16ZM577.404 61.64H553.404C553.404 62.2267 553.378 62.5467 553.324 62.6V85.96H577.884V63.48C577.884 62.7333 577.724 62.12 577.404 61.64ZM525.004 27.08L524.604 23.08C524.551 22.7067 524.738 22.52 525.164 22.52C530.924 22.52 533.804 23.1333 533.804 24.36C533.804 24.68 533.404 25.08 532.604 25.56C531.804 25.9867 531.404 26.44 531.404 26.92V37.56H534.844L539.804 33.32C540.338 33.32 541.538 34.04 543.404 35.48C545.324 36.92 546.284 38.0933 546.284 39C546.284 39.2667 545.724 39.8 544.604 40.6C543.484 41.4 542.924 42.0667 542.924 42.6V70.52C542.924 74.52 541.431 76.52 538.444 76.52C537.964 76.52 537.644 76.3067 537.484 75.88C536.951 74.44 535.404 73.1333 532.844 71.96C532.098 71.8 531.724 71.5333 531.724 71.16C531.724 70.7867 532.044 70.6 532.684 70.6L535.564 70.92C536.631 70.92 537.164 70.4933 537.164 69.64V41.32C537.164 40.6267 537.004 40.04 536.684 39.56H531.404V85.56C531.724 89.2933 531.884 91.5067 531.884 92.2C531.884 93.48 529.938 94.12 526.044 94.12C525.724 94.12 525.271 93.4533 524.684 92.12L525.084 85.56V39.56H519.964C519.858 39.7733 519.804 49.5333 519.804 68.84C520.124 72.5733 520.284 74.7867 520.284 75.48C520.284 76.7067 518.524 77.32 515.004 77.32C514.951 77.3733 514.898 77.4 514.844 77.4C514.524 77.4 514.071 76.7333 513.484 75.4L513.884 68.84V38.36L513.484 34.76C513.431 34.44 513.511 34.28 513.724 34.28C513.991 34.28 515.138 34.76 517.164 35.72C519.191 36.6267 520.764 37.24 521.884 37.56H525.084L525.004 27.08Z" fill="#40356F"/>
</svg>
