<svg xmlns="http://www.w3.org/2000/svg" width="1263.296" height="538.192" viewBox="0 0 1263.296 538.192"><defs><style>.a{fill:#40356f;}.b{fill:#645fce;}</style></defs><g transform="translate(-135.704 609.892)"><path class="a" d="M760.4-608.1c-6.4,2.9-22.7,23.1-34.4,42.8a110.086,110.086,0,0,1-6.6,10.3,112.773,112.773,0,0,1-9.7-5.9c-15.6-9.9-24.8-14.1-31-14.1-9.7,0-14.8,5.3-19.3,19.9-3.1,10.3-7.4,28.6-7.4,32.1-.1,5.2-.7,5.4-13.6,3.7-33.6-4.4-42.1-2.8-46.9,8.5-3.7,9.1.2,46,7.6,70.4l2.1,7.1,12.2,1.2c10.7,1,22.4,2.9,27.7,4.6,1.6.5,1.9.1,1.9-2.6,0-8.2,6.8-43.7,11.1-58.1,3.6-12.1,12.1-19,21.5-17.2,5.1.9,22.8,12.8,35.3,23.6a28.813,28.813,0,0,0,5,3.8c.4,0,2.2-3.5,4-7.8C729.3-508,752-545,759-549.6a15.859,15.859,0,0,1,17.7-.2c6.9,4.5,22,28.5,35,55.6,4.2,8.6,7.7,15.8,7.8,16,.2.2,4.2-2.9,9.1-6.7,11.9-9.6,25-18.2,30.2-20,5.4-1.7,10.6-.4,15.6,4,4.6,4,6.8,9.1,10.5,24.4,2.9,12.4,8.1,42.4,8.1,47.3,0,1.8.4,2.2,1.9,1.7,5.3-1.7,17-3.6,27.8-4.6l12.1-1.2,3.2-12.1a234.551,234.551,0,0,0,7.7-47.6c.7-13.9-.1-18-4.4-23-5.2-6.2-15.3-7-43.2-3.4-6.3.8-11.9,1.3-12.6,1-.7-.2-1.6-3-2-6.1-.8-6.4-4.6-22.6-7.6-32.7-3.8-12.5-9.3-17.8-18.6-17.8-4.4,0-7,.8-14.6,4.6-5,2.6-13,7.1-17.6,10.1s-8.7,5.1-9.2,4.6c-.4-.4-3.3-5-6.4-10-11.6-19.3-26.6-38.4-33-42C771.6-610.5,765.9-610.6,760.4-608.1Z"/><path class="b" d="M763.2-521.2c-23.2,36.4-38.8,73-46.2,108.5-2,9.7-5.5,34.6-4.9,35.2.2.1,6.5-.1,13.9-.7,13.5-1,89-.4,96.2.8l3.7.6-.5-5.3c-3.9-37.2-15.3-73.7-34.3-110.4-7.5-14.5-19.7-34.5-21.9-35.9C768.6-528.7,766-525.5,763.2-521.2Z"/><path class="b" d="M669.9-475.8c-4.3,16-10.5,50.6-9.7,54.4.2.9,4,3.1,9.3,5.3,5,2,12.6,5.6,16.9,7.9a75.526,75.526,0,0,0,8.1,3.9c.1-.1,1.2-5.1,2.4-11.1,1.2-5.9,3.8-16.3,5.8-23,1.9-6.6,3.7-13,3.9-14.1.3-1.5-1.5-3.5-7.3-8.1-8.4-6.5-18.5-13.7-24.5-17.3l-3.7-2.2Z"/><path class="b" d="M856.1-475.9a245.38,245.38,0,0,0-25.3,19l-3.7,3.4,4.4,15.1c2.4,8.3,5.1,18.9,6,23.5s1.8,9,2,9.6c.3.9,2.9-.1,8-2.8,4.1-2.2,11.7-5.8,16.8-7.9l9.2-3.8-.2-5.6c-.4-10.3-7.7-48.8-10.1-53.2C862.6-479.6,861.1-479.1,856.1-475.9Z"/><path class="b" d="M615.1-403.3c6.6,10.9,12.7,19.1,20.2,26.8l8.2,8.7,13.7-2.6c7.6-1.4,18.5-3.1,24.3-3.8,9.8-1.2,10.5-1.4,10.5-3.4,0-6.9-38-23-66.1-27.9-4.6-.8-9.4-1.5-10.7-1.5h-2.4Z"/><path class="b" d="M907.5-404.9c-20.7,4.4-37.9,10.8-54.1,20-6.3,3.6-7.4,4.7-7.4,6.9,0,2.7.1,2.7,12.8,4.4,7,1,17.4,2.7,23.1,3.8l10.5,2.1,7.6-7.9a146.075,146.075,0,0,0,19.9-26.2l3-5.2-3.2.1A88.455,88.455,0,0,0,907.5-404.9Z"/><path class="a" d="M279.5-264.4c-15.9,3.6-30.6,4.5-81,5.1-27.5.3-50.2.7-50.3.8-.2.2,1.2,3,3,6.2,3.3,5.6,3.6,5.8,7.4,5.6,2.1-.1,17.1-.5,33.2-.9l29.2-.7V-232H140v11h33.8l33.7.1-5.5,5c-15.9,14.5-38,25.7-65.8,33.5-.9.3-.6,1.3,1.1,3.6a28.278,28.278,0,0,1,3.7,7.1c1.4,4.5,1.5,4.5,15.1-.9,4.8-1.9,8.9-3.4,9.3-3.4.3,0,.6,2,.6,4.5v4.5l44.3.2,44.2.3L239.8-160,225-153.5V-137H140v11h85.1l-.3,16.5c-.2,11.8-.7,16.8-1.6,17.7s-4.5,1.2-12.7,1.1L199-90.9l2,3.7a19.632,19.632,0,0,1,2,7.9V-75h6.3c12.2,0,22.8-4.1,26.6-10.4,1.9-3.1,2.1-4.9,2.1-22V-126h82v-11H237.9l.3-3.7.3-3.8,20.5-9.2c11.3-5.1,22.9-9.8,25.9-10.4l5.3-1.1-.6-3.6a54.827,54.827,0,0,1-.6-6V-177H235v-21.5c0-11.8.4-21.5.8-21.5s2.6,1.8,4.7,4.1c10.1,10.4,28.2,23.2,44.8,31.8,8.6,4.4,23.4,10.1,26.3,10.1.5,0,1.5-1.5,2.2-3.3a19.526,19.526,0,0,1,3.8-6c1.4-1.6,2.4-3,2.3-3.2-.2-.1-3.9-1.3-8.2-2.5a142.972,142.972,0,0,1-54.1-27.9l-4.8-4.1h62.7v-11H235v-16h9.8c13.3,0,43.5-1.9,44.3-2.8,1-1.1-1.4-15.2-2.5-15.1C286-265.8,282.8-265.2,279.5-264.4Zm-58.8,87.1c-.2.2-12.1.2-26.3.1l-25.9-.3,8-4.3A245.736,245.736,0,0,0,212-206.1l8.5-7.1.3,17.8C220.9-185.7,220.9-177.5,220.7-177.3Z"/><path class="a" d="M365.5-260.8c-1.6,2.3-3.3,4.7-3.7,5.3-.5.7,3.5,4.4,10.7,9.8,6.3,4.8,11.6,8.7,11.8,8.7.3,0,2.3-2.4,4.5-5.4l4.1-5.4-11.3-8.6c-6.2-4.7-11.7-8.6-12.2-8.6S367.2-263.1,365.5-260.8Z"/><path class="a" d="M1334.8-214.5l.5,49.5H1301v89h14.9l-.6-8-.6-8h58.2l.3,7.7.3,7.8,6.8.3,6.7.3V-165h-39v-45h51v-10.6l-25.6.4-25.7.4.5-22.1.5-22.1h-14.4Zm38.2,86V-102h-58v-53h58Z"/><path class="a" d="M913-168.3V-76h14l.2-28.2.3-28.3,20.8.3,20.7.3V-142H927v-28h34v-10H927v-33h36v-10H927v-37.5H913Z"/><path class="a" d="M1048.6-258.3c-2.9,12-14,36.5-21.5,47.7-5.8,8.5-19.8,25-28.5,33.5l-5.5,5.4,4.3,2.7a38.749,38.749,0,0,1,6.5,5.1l2.3,2.4,6.6-7c8.6-9.2,20.4-25.1,27.8-37.5l5.9-9.9,54.8-.1H1156v59.7c0,46.2-.3,60.4-1.3,62.3-1.2,2.4-1.6,2.5-13.5,2.8l-12.2.3,2,2.7c1.3,1.7,2.3,5.1,2.7,8.5l.6,5.7h5.3c10.7,0,21.3-3.5,25.7-8.6,4.5-5.2,4.5-5.4,4.6-77.2l.1-68.2H1053.1l5.9-12.3c3.2-6.7,6-12.8,6.2-13.5.2-.9-2.5-2.4-7.7-4.3-4.4-1.5-8.1-2.9-8.1-2.9A9.552,9.552,0,0,0,1048.6-258.3Z"/><path class="a" d="M1243.7-242.5l.6,17.5H1215v42.8c0,23.6-.3,46.9-.6,51.8l-.7,8.9h18.2l-.1-46.8c-.2-33.7.1-47,.9-47.5.6-.4,3.3-.7,6-.6l4.8.1V-74H1261v-71c0-46.6.3-71,1-71.1.6,0,3.1-.1,5.8-.2l4.7-.1v79.9l-4.7-.1H1263c0,.1.7,2.3,1.5,5a36.009,36.009,0,0,1,1.5,7.8c0,2.4.4,2.8,2.8,2.8,7.2-.2,16.3-5.6,19.2-11.6,1.9-3.8,2-6.2,2-48.2V-225h-29v-35h-18Z"/><path class="a" d="M732-175.6c0,79.7-.1,82.5-1.9,84.7s-2.6,2.4-12.3,2.4H707.5l1.7,3.5a21.239,21.239,0,0,1,1.8,8.4v4.9l7.3-.6c15.2-1.3,23.4-6,25.6-14.5.6-2.2,1.1-37.2,1.3-87.5l.3-83.7H732Z"/><path class="a" d="M825-249.2c-3.4,12.9-8.7,27.8-12.6,35.2-5.1,9.7-15.4,22.9-26.6,34-8.9,8.8-9.7,9.9-7.8,10.5,1.2.4,4,2.5,6.2,4.7l4.1,4.1,6.6-6.9c3.7-3.8,8.3-8.9,10.4-11.4l3.7-4.5-.2,54.8L808.5-74H822v-65.5c0-55.6.2-65.9,1.4-67.8,3.7-5.6,18.6-42.3,18.6-45.7,0-.5-1.7-1.2-3.7-1.6a62.1,62.1,0,0,1-7.4-2l-3.6-1.2Z"/><path class="a" d="M874.8-240.1l.5,16.4-15.5-.5-15.5-.5-.1,5.1v5.2l15.4-.4,15.4-.4v35.3l-15.5-.3-15.5-.3V-170l15.3-.3,15.2-.2.3,16.7L875-137H842v10h33.2l-.4,25.5L874.5-76h14V-256.6H874.4Z"/><path class="a" d="M429-251.5v4.5h34.1l-.7,4.7c-.3,2.7-1.1,9.1-1.7,14.3l-1.2,9.5-14,.3-14,.3-.1,4.6-.1,4.6,13.4-.5c8.4-.4,13.3-.2,13.3.4,0,1.7-4,32.2-4.5,34.5s-.8,2.3-16,2.3H422v9H538v-8.9l-12.2-.3-12.3-.3v-45l-20.8-.3-20.8-.2.5-2.8c.3-1.5,1-7,1.6-12.2s1.3-10.5,1.6-11.8l.4-2.2h50v-9H429Zm71.8,60.7L501-172H483.5c-9.6,0-17.5-.1-17.5-.3,0-.1,1.1-8.5,2.5-18.7s2.5-18.6,2.5-18.8c0-.1,6.6-.1,14.8,0l14.7.3Z"/><path class="a" d="M584-221.5V-188h14v-4c0-3.8.2-4,3-4h3v25.6c0,27.5-.9,36.1-4.7,46.7-5.3,14.8-16.2,28.3-27.7,34.3-3.1,1.6-5.6,3.1-5.6,3.4s1.6,1.4,3.6,2.5a14.869,14.869,0,0,1,5.2,4.7c2,3.4,2.5,3.4,6.5.6a81.528,81.528,0,0,0,27.3-32.3c5.6-11.7,8.3-23,9.1-38.3l.6-12.2,15.6.2,15.6.3v33.7c0,26.5-.3,34-1.3,35-1,.9-4.7,1.3-13.2,1.2l-11.9-.1,2.1,2.8c1.4,1.8,2.3,4.9,2.6,8.5l.5,5.7,7.6-.7c10-.9,13.7-2,19.2-5.4,8-5.1,7.9-4.4,7.9-50.6V-171H618v-25h30v8h14v-67H584Zm64-4.5v19H598v-38h50Z"/><path class="a" d="M348-231.5v4.5h68v-9H348Z"/><path class="a" d="M692.5-177v53h14V-230h-14Z"/><path class="a" d="M353-201.5v4.5h56v-9H353Z"/><path class="a" d="M1047-153v38h15v-15h41v15h14v-76h-70Zm56-7.5V-142h-41v-37h41Z"/><path class="a" d="M353.4-171.5l-.1,4.5h55.2v-9h-55Z"/><path class="a" d="M351-125.8c0,10.1-.3,25.8-.7,35L349.7-74h14.5l-.3-8.3-.4-8.2,17.3-.3L398-91v17h13v-70H351Zm47,8.8v19l-17.2-.2-17.3-.3-.3-18.8L363-136h35Z"/><path class="a" d="M438-120.3c0,13.1-.3,28.4-.7,34L436.7-76H451V-90h56v14h12v-68H438Zm69,3.8V-98H450v-37h57Z"/></g></svg>