<svg width="480" height="195" viewBox="0 0 480 195" fill="none" xmlns="http://www.w3.org/2000/svg">
<path d="M238.034 0.463069C236.379 1.21248 232.165 6.43251 229.14 11.5233C228.621 12.4415 228.052 13.3301 227.434 14.185C226.573 13.7192 225.736 13.2103 224.926 12.6604C220.893 10.102 218.514 9.01668 216.911 9.01668C214.403 9.01668 213.085 10.3863 211.921 14.1592C211.12 16.8209 210.008 21.5499 210.008 22.4544C209.982 23.7982 209.827 23.8498 206.492 23.4105C197.805 22.2735 195.607 22.687 194.366 25.6071C193.41 27.9587 194.418 37.4943 196.331 43.7997L196.874 45.6344L200.028 45.9445C202.795 46.2029 205.82 46.6939 207.19 47.1332C207.604 47.2624 207.681 47.1591 207.681 46.4614C207.681 44.3423 209.439 35.1685 210.551 31.4473C211.482 28.3205 213.679 26.5374 216.11 27.0025C217.428 27.2351 222.005 30.3103 225.236 33.1012C225.63 33.4746 226.064 33.8039 226.529 34.0832C226.632 34.0832 227.098 33.1787 227.563 32.0675C229.993 26.3306 235.862 16.7692 237.672 15.5805C238.343 15.1182 239.137 14.8663 239.952 14.8571C240.768 14.8479 241.567 15.0818 242.248 15.5288C244.032 16.6917 247.936 22.8937 251.297 29.8968C252.383 32.1192 253.288 33.9798 253.314 34.0315C253.366 34.0832 254.4 33.2821 255.667 32.3001C258.743 29.8193 262.13 27.5969 263.475 27.1317C264.871 26.6924 266.215 27.0284 267.508 28.1654C268.697 29.1991 269.266 30.517 270.223 34.4708C270.972 37.6752 272.317 45.4277 272.317 46.6939C272.317 47.1591 272.42 47.2624 272.808 47.1332C274.178 46.6939 277.203 46.2029 279.996 45.9445L283.124 45.6344L283.951 42.5076C285.036 38.4866 285.703 34.3646 285.942 30.2069C286.123 26.6149 285.916 25.5554 284.804 24.2633C283.46 22.6611 280.849 22.4544 273.635 23.3847C272.007 23.5914 270.559 23.7206 270.378 23.6431C270.197 23.5914 269.964 22.8678 269.861 22.0668C269.654 20.4129 268.671 16.2265 267.896 13.6165C266.913 10.3863 265.491 9.01668 263.087 9.01668C261.949 9.01668 261.277 9.2234 259.312 10.2054C258.019 10.8773 255.951 12.0402 254.762 12.8154C253.573 13.5907 252.513 14.1333 252.383 14.0041C252.28 13.9008 251.53 12.712 250.729 11.42C247.729 6.4325 243.851 1.49673 242.197 0.566426C240.93 -0.157143 239.456 -0.182975 238.034 0.463069Z" fill="#40356F"/>
<path d="M238.758 22.9195C232.76 32.3259 228.727 41.784 226.813 50.9578C226.296 53.4645 225.391 59.8991 225.547 60.0541C225.598 60.08 227.227 60.0283 229.14 59.8732C232.631 59.6148 252.151 59.7699 254.012 60.08L254.969 60.235L254.839 58.8654C253.831 49.2523 250.884 39.82 245.971 30.3361C244.032 26.5891 240.878 21.4207 240.309 21.0589C240.154 20.9814 239.482 21.8083 238.758 22.9195Z" fill="#645FCE"/>
<path d="M214.636 34.6517C213.524 38.7864 211.921 47.7276 212.128 48.7096C212.18 48.9422 213.162 49.5107 214.533 50.0792C215.825 50.596 217.79 51.5263 218.902 52.1207C219.579 52.4979 220.279 52.8345 220.996 53.1285C221.022 53.1027 221.306 51.8106 221.617 50.2601C221.927 48.7354 222.599 46.0479 223.116 44.3165C223.607 42.6109 224.073 40.9571 224.125 40.6728C224.202 40.2852 223.737 39.7683 222.237 38.5796C220.065 36.8999 217.454 35.0393 215.903 34.109L214.946 33.5405L214.636 34.6517Z" fill="#645FCE"/>
<path d="M262.777 34.6258C260.493 36.1201 258.308 37.7602 256.236 39.5358L255.279 40.4144L256.417 44.3165C257.037 46.4614 257.735 49.2006 257.968 50.3893C258.2 51.578 258.433 52.7151 258.485 52.8701C258.562 53.1027 259.235 52.8443 260.553 52.1465C261.613 51.578 263.578 50.6477 264.897 50.105L267.275 49.1231L267.224 47.6759C267.12 45.0142 265.233 35.0652 264.612 33.9281C264.457 33.6697 264.069 33.7989 262.777 34.6258Z" fill="#645FCE"/>
<path d="M200.468 53.3869C202.174 56.2037 203.751 58.3227 205.69 60.3125L207.81 62.5608L211.352 61.8889C213.317 61.5271 216.136 61.0878 217.635 60.9069C220.169 60.5968 220.35 60.5451 220.35 60.0283C220.35 58.2452 210.525 54.0847 203.26 52.8184C202.071 52.6117 200.83 52.4308 200.494 52.4308H199.873L200.468 53.3869Z" fill="#645FCE"/>
<path d="M276.066 52.9735C270.714 54.1105 266.267 55.7644 262.079 58.1418C260.45 59.0721 260.165 59.3564 260.165 59.9249C260.165 60.6226 260.191 60.6226 263.475 61.0619C265.284 61.3204 267.973 61.7597 269.447 62.0439L272.162 62.5866L274.127 60.5451C276.091 58.4891 277.817 56.2179 279.272 53.7746L280.047 52.4308L279.22 52.4566C278.158 52.5552 277.104 52.7279 276.066 52.9735Z" fill="#645FCE"/>
<path d="M51.44 138.08H28.16C26.56 138.133 25.3067 138.347 24.4 138.72C23.4933 139.093 22.9333 139.307 22.72 139.36C22.5067 139.36 22.2933 139.253 22.08 139.04L18.72 136.08C18.6133 135.76 18.7733 135.52 19.2 135.36C22.2933 135.893 26.72 136.187 32.48 136.24C38.24 136.24 44.6933 136.24 51.84 136.24C54.72 133.893 56.4267 132.72 56.96 132.72H57.04C60.56 136.027 62.32 138.373 62.32 139.76C57.52 142.053 51.9733 143.653 45.68 144.56C46.3733 144.773 46.72 145.013 46.72 145.28C46.72 145.547 46.2933 145.92 45.44 146.4C44.64 146.88 44.24 147.387 44.24 147.92V149.12H63.76C64.08 149.12 64.7467 148.64 65.76 147.68C66.8267 146.667 67.52 145.947 67.84 145.52C68.16 145.04 68.6133 144.8 69.2 144.8C69.84 144.8 70.3733 144.987 70.8 145.36C75.0667 148.933 77.2 150.747 77.2 150.8C77.2 151.067 76.5867 151.2 75.36 151.2H44.24V165.44C44.24 166.667 43.7067 167.92 42.64 169.2C41.5733 170.533 40.5333 171.2 39.52 171.2C38.56 171.2 37.8133 170.96 37.28 170.48C33.44 166.8 28.9333 164.88 23.76 164.72C23.0133 164.507 22.64 164.187 22.64 163.76C22.64 163.333 22.9867 163.04 23.68 162.88L38 164.24L38.56 162.88V151.2H12.24C10.64 151.307 9.33333 151.547 8.32 151.92C7.36 152.24 6.82667 152.373 6.72 152.32C4.48 150.667 3.17333 149.467 2.8 148.72C2.8 148.4 2.93333 148.24 3.2 148.24C6.29333 148.773 10.0267 149.067 14.4 149.12H38.56V147.68C38.56 146.88 38.48 146.08 38.32 145.28C38.16 144.427 38.1067 143.92 38.16 143.76C38.2667 143.547 38.5067 143.44 38.88 143.44C39.2533 143.44 40.16 143.573 41.6 143.84C45.8133 141.973 49.0933 140.053 51.44 138.08ZM43.28 126.64C43.5467 128.4 43.68 129.973 43.68 131.36C43.68 132.693 41.76 133.36 37.92 133.36C37.0133 133.36 36.48 132.72 36.32 131.44L36.72 126.64V123.12C26.0533 130.213 15.52 134.987 5.12 137.44C4.69333 137.547 4.29333 137.6 3.92 137.6C3.6 137.6 3.44 137.44 3.44 137.12C3.44 135.947 4.05333 135.173 5.28 134.8C14.88 131.44 24.2933 125.653 33.52 117.44H13.2C11.6 117.493 10.32 117.707 9.36 118.08C8.45333 118.453 7.89333 118.64 7.68 118.64L3.84 115.36C3.68 115.2 3.6 114.987 3.6 114.72C3.6 114.453 3.81333 114.373 4.24 114.48C7.33333 115.013 11.0667 115.307 15.44 115.36H36.72V108.24C25.5733 109.36 16.88 109.973 10.64 110.08C9.62667 109.547 9.22667 109.04 9.44 108.56C9.65333 108.027 10.2933 107.627 11.36 107.36C34.08 105.707 50.2133 102.827 59.76 98.72C65.2533 102.827 68 105.333 68 106.24C68 106.347 67.9733 106.427 67.92 106.48L62.88 105.28C55.7333 106.187 49.1733 106.96 43.2 107.6V115.36H64.48L69.2 109.84C74.2667 114.32 76.8 116.613 76.8 116.72C76.8 117.2 76.1867 117.44 74.96 117.44L46 117.52C52.72 123.44 63.52 127.573 78.4 129.92L72.88 137.28C59.44 132.267 49.5733 126.32 43.28 119.44V126.64ZM103.36 100.72L109.04 106.64C109.04 106.853 108.4 107.013 107.12 107.12H95.84L89.68 107.6L86.88 104.08C91.04 104.613 93.4133 104.933 94 105.04H98.64L103.36 100.72ZM106.16 130.72L111.84 136.64C111.84 136.853 111.2 137.013 109.92 137.12H93.12L86.56 137.52L84.16 134.08C88.1067 134.613 90.6667 134.933 91.84 135.04H101.44L106.16 130.72ZM106.16 120.32L111.84 126.24C111.84 126.453 111.2 126.613 109.92 126.72H93.12L86.8 127.2L84.16 123.68C86.2933 124.213 88.7733 124.533 91.6 124.64H101.44L106.16 120.32ZM110.8 116.56H89.84L85.44 116.96L82 113.92C83.4933 114.293 84.8 114.48 85.92 114.48C87.04 114.48 87.9467 114.453 88.64 114.4H103.12L107.84 110.08C111.307 113.707 113.04 115.707 113.04 116.08C113.04 116.453 112.747 116.64 112.16 116.64C111.573 116.64 111.12 116.613 110.8 116.56ZM102.72 148H92.56C92.56 148.853 92.5333 149.307 92.48 149.36V161.52H103.2V150.24C103.2 149.227 103.04 148.48 102.72 148ZM93.44 146.32H101.28L105.12 141.92C109.6 144.907 111.84 146.72 111.84 147.36L109.6 150.24V158.4L110.08 165.12C109.973 166.187 108.373 166.72 105.28 166.72H104.4C103.44 166.667 102.96 166.08 102.96 164.96C102.96 164.533 103.013 164.027 103.12 163.44H92.56C92.7733 165.52 92.88 167.307 92.88 168.8C92.88 170.347 90.88 171.12 86.88 171.12C85.92 171.12 85.3867 170.48 85.28 169.2L85.68 161.28V148.72C85.68 146.853 85.5467 145.68 85.28 145.2C85.1733 145.04 85.12 144.8 85.12 144.48C85.12 144.053 85.2533 143.52 85.52 142.88L93.44 146.32ZM143.92 148.32C143.92 147.84 143.76 147.387 143.44 146.96H123.68V161.68H143.92V148.32ZM124.48 144.96H141.6C142.293 144.64 143.2 143.787 144.32 142.4C145.44 141.013 146.133 140.32 146.4 140.32C146.72 140.32 148 141.173 150.24 142.88C152.533 144.587 153.68 145.893 153.68 146.8C153.68 147.067 153.12 147.6 152 148.4C150.88 149.2 150.32 149.84 150.32 150.32V161.36L150.8 169.52C150.64 170.587 148.747 171.12 145.12 171.12C144.747 171.12 144.4 170.933 144.08 170.56C143.76 170.187 143.6 169.573 143.6 168.72C143.6 167.867 143.68 166.24 143.84 163.84H123.84C124.053 165.867 124.16 167.307 124.16 168.16V169.52C124 170.587 122.107 171.12 118.48 171.12C117.467 171.12 116.96 170.453 116.96 169.12L117.28 161.36V145.36L116.88 141.76C116.827 141.44 116.96 141.28 117.28 141.28C117.6 141.28 118.667 141.84 120.48 142.96C122.347 144.027 123.68 144.693 124.48 144.96ZM156.16 137.12H119.28C116.56 137.12 114.64 137.253 113.52 137.52L111.12 134.08C112.293 134.667 114.613 134.96 118.08 134.96H122.48L125.12 120.24H120.64L115.84 120.88C114.24 118.747 113.44 117.653 113.44 117.6C113.547 117.387 113.627 117.333 113.68 117.44C113.733 117.493 113.813 117.52 113.92 117.52C114.027 117.52 115.067 117.653 117.04 117.92C119.013 118.187 121.84 118.347 125.52 118.4L127.84 106.8H120.4C117.68 106.8 115.76 106.933 114.64 107.2L112.24 103.76C113.413 104.347 115.733 104.64 119.2 104.64H144C145.173 103.467 146.613 102.08 148.32 100.48C152.373 103.253 154.4 105.013 154.4 105.76C154.4 106.347 153.813 106.693 152.64 106.8H134.72L132.4 118.32C134.48 118.32 136.533 118.32 138.56 118.32C139.307 118 140.24 117.227 141.36 116C142.48 114.72 143.2 114.08 143.52 114.08C144.48 114.08 145.893 114.8 147.76 116.24C149.627 117.68 150.56 118.72 150.56 119.36C150.56 119.627 150.027 120.16 148.96 120.96C147.893 121.707 147.36 122.347 147.36 122.88L146.72 134.96H148.8C150.24 133.36 151.547 131.973 152.72 130.8C156.24 133.573 158 135.333 158 136.08C158 136.667 157.387 137.013 156.16 137.12ZM140.64 134.96C141.12 125.787 141.36 121.2 141.36 121.2C141.36 121.04 141.227 120.72 140.96 120.24H132L129.28 134.96H140.64ZM193.68 126.4H184.72C184.453 130.56 184.053 134.427 183.52 138H192.56L197.52 133.76C200.827 135.627 202.853 137.387 203.6 139.04L201.04 142.56C200.827 150.08 200.16 157.44 199.04 164.64C197.6 168.64 194.613 170.667 190.08 170.72L187.04 168.24C184.48 166.16 181.04 165.04 176.72 164.88C175.973 164.56 175.6 164.24 175.6 163.92C175.6 163.547 175.92 163.147 176.56 162.72L189.12 164C190.507 164 191.68 163.413 192.64 162.24C193.973 153.76 194.747 146.8 194.96 141.36C194.853 140.933 194.693 140.587 194.48 140.32H183.12C180.24 155.84 174.213 166.027 165.04 170.88C164.72 171.04 164.373 171.12 164 171.12C163.2 171.12 162.8 170.667 162.8 169.76C162.8 169.387 163.093 168.96 163.68 168.48C172.96 160.213 177.6 146.827 177.6 128.32C177.6 127.68 177.6 127.04 177.6 126.4H174.16L174.48 128.72C174.48 129.787 172.587 130.32 168.8 130.32C167.893 130.32 167.36 129.68 167.2 128.4L167.6 124.16V108C167.6 106.133 167.467 104.96 167.2 104.48C166.933 104 167.013 103.227 167.44 102.16L175.68 105.6H191.36C192.053 105.28 192.96 104.48 194.08 103.2C195.253 101.867 196.027 101.2 196.4 101.2C197.307 101.2 198.72 102.027 200.64 103.68C202.613 105.333 203.6 106.613 203.6 107.52L200.24 110.4V124.16L200.72 128.72C200.613 129.787 198.693 130.32 194.96 130.32C193.893 130.32 193.36 129.707 193.36 128.48C193.36 127.68 193.467 126.987 193.68 126.4ZM193.28 107.68H174.16C174.16 108.267 174.133 108.587 174.08 108.64V124.32H193.76V109.52C193.76 108.773 193.6 108.16 193.28 107.68ZM227.92 162.64V104.48L227.52 100.88C227.467 100.507 227.733 100.32 228.32 100.32C228.907 100.32 230.453 100.533 232.96 100.96C235.52 101.333 236.8 101.733 236.8 102.16C236.8 102.427 236.373 102.8 235.52 103.28C234.72 103.707 234.32 104.187 234.32 104.72V165.12C234.32 169.12 231.627 171.12 226.24 171.12L223.12 168.64C220.56 166.613 216.56 165.493 211.12 165.28C210.373 164.96 210 164.64 210 164.32C210 163.947 210.32 163.547 210.96 163.12L224.24 164.4C226.693 164.293 227.92 163.707 227.92 162.64ZM209.44 146.16V108.32L209.04 104.72C208.987 104.347 209.253 104.16 209.84 104.16C210.427 104.16 211.973 104.373 214.48 104.8C217.04 105.173 218.32 105.573 218.32 106C218.32 106.267 217.893 106.64 217.04 107.12C216.24 107.547 215.84 108.027 215.84 108.56V146.16C216.107 149.627 216.24 151.813 216.24 152.72C216.24 154 214.373 154.64 210.64 154.64C210.267 154.64 209.92 154.453 209.6 154.08C209.28 153.707 209.093 153.253 209.04 152.72L209.44 146.16ZM263.28 172.4C262.533 172.4 262.16 171.893 262.16 170.88C262.16 170.453 262.347 170.027 262.72 169.6C270.453 165.387 275.307 158.587 277.28 149.2C272.16 151.76 268.08 153.467 265.04 154.32C264.72 156.773 264.347 158 263.92 158C262.747 158 261.04 154.96 258.8 148.88C264.24 148.133 270.667 146.56 278.08 144.16C278.24 142.4 278.32 140.533 278.32 138.56V132.96H271.44C269.627 133.013 268.4 133.227 267.76 133.6C267.12 133.92 266.507 134.24 265.92 134.56L262.08 130.88C261.92 130.72 261.84 130.507 261.84 130.24C261.84 129.973 262.053 129.893 262.48 130C265.573 130.533 269.307 130.827 273.68 130.88H278.32V117.44H270C268.4 117.493 267.12 117.707 266.16 118.08C265.253 118.453 264.693 118.64 264.48 118.64L260.64 115.36C260.48 115.2 260.4 114.987 260.4 114.72C260.4 114.453 260.613 114.373 261.04 114.48C264.133 115.013 267.867 115.307 272.24 115.36H278.32V104.48L278 100.96C277.947 100.587 278.133 100.4 278.56 100.4C278.773 100.4 280.267 100.613 283.04 101.04C285.813 101.413 287.2 101.787 287.2 102.16L284.72 104.72V141.92C286.32 141.333 287.76 140.8 289.04 140.32C290.32 139.84 291.173 139.6 291.6 139.6C292.027 139.6 292.267 139.76 292.32 140.08C292.373 140.4 292.24 140.8 291.92 141.28C289.307 142.773 286.88 144.16 284.64 145.44C283.68 157.973 276.96 166.827 264.48 172C263.84 172.267 263.44 172.4 263.28 172.4ZM293.28 161.84V104.48L292.96 100.96C292.907 100.587 293.093 100.4 293.52 100.4C293.947 100.4 295.493 100.613 298.16 101.04C300.827 101.413 302.16 101.787 302.16 102.16L299.68 104.72V115.2H306.72C308.48 113.387 310.24 111.573 312 109.76C316 112.853 318 114.88 318 115.84C318 116.8 317.12 117.28 315.36 117.28H299.68V130.72H305.12C306.88 128.907 308.64 127.093 310.4 125.28C314.4 128.373 316.4 130.4 316.4 131.36C316.4 132.32 315.52 132.8 313.76 132.8H299.68V146.88H307.92C309.68 145.067 311.44 143.253 313.2 141.44C317.2 144.533 319.2 146.56 319.2 147.52C319.2 148.48 318.32 148.96 316.56 148.96H299.68V162.64L300.16 168.64C300.16 168.747 300.133 169.04 300.08 169.52C299.973 170.587 298.107 171.12 294.48 171.12C293.413 171.12 292.88 170.267 292.88 168.56C292.88 166.907 293.013 164.667 293.28 161.84ZM243.92 141.12C243.44 141.333 243.04 141.44 242.72 141.44C241.973 141.44 241.6 140.907 241.6 139.84C241.6 139.467 241.813 138.987 242.24 138.4C247.893 128.32 252.56 115.067 256.24 98.64C262.747 99.6533 266 100.853 266 102.24L262.08 103.68C260.693 109.6 258.88 114.427 256.64 118.16C259.04 118.48 260.24 118.8 260.24 119.12C260.24 119.44 259.813 119.84 258.96 120.32C258.16 120.747 257.76 121.227 257.76 121.76V162.72C258.027 166.027 258.16 168.32 258.16 169.6C258.16 170.667 256.507 171.2 253.2 171.2C252.08 171.2 251.467 170.56 251.36 169.28L251.76 162.72V129.04C249.36 133.52 246.747 137.547 243.92 141.12ZM341.6 123.84L348.16 126.64H361.36L366.24 122.4C366.507 122.4 367.707 123.253 369.84 124.96C371.973 126.667 373.04 127.973 373.04 128.88L370.08 132.4V147.04L370.56 153.52C370.4 154.587 368.507 155.12 364.88 155.12C363.867 155.12 363.36 154.587 363.36 153.52L363.6 149.92H346.72C346.933 151.947 347.04 154.427 347.04 157.36C346.88 158.427 344.987 158.96 341.36 158.96C341.307 159.013 341.253 159.04 341.2 159.04C340.933 159.04 340.48 158.347 339.84 156.96L340.16 147.04V127.44L340.08 126.4C336.667 131.52 332.613 137.067 327.92 143.04C327.493 143.2 327.12 143.28 326.8 143.28C326.213 143.28 325.92 142.987 325.92 142.4C325.92 141.76 326.053 141.147 326.32 140.56C336.667 125.04 342.8 111.333 344.72 99.44C353.147 102 357.36 103.707 357.36 104.56C357.36 105.147 356.587 105.44 355.04 105.44C353.547 105.44 352.133 105.387 350.8 105.28C350.107 107.307 349.28 109.413 348.32 111.6H382.64C383.333 111.28 384.24 110.507 385.36 109.28C386.533 108 387.28 107.36 387.6 107.36C388.507 107.36 389.867 108.08 391.68 109.52C393.493 110.96 394.4 112 394.4 112.64C394.4 112.907 393.84 113.44 392.72 114.24C391.653 114.987 391.12 115.627 391.12 116.16C391.12 117.973 391.12 121.067 391.12 125.44C391.12 129.76 390.987 135.973 390.72 144.08C390.453 152.133 388.907 159.12 386.08 165.04C384.053 169.093 380.533 171.12 375.52 171.12L372.4 168.64C369.84 166.613 365.84 165.493 360.4 165.28C359.653 164.96 359.28 164.64 359.28 164.32C359.28 163.947 359.6 163.547 360.24 163.12L376.16 164.4C377.547 164.4 378.72 163.813 379.68 162.64C381.813 158.16 383.147 153.253 383.68 147.92C384.267 142.587 384.72 131.733 385.04 115.36C384.933 114.933 384.773 114.587 384.56 114.32H347.04C345.547 117.307 343.733 120.48 341.6 123.84ZM363.68 130.4C363.68 129.92 363.52 129.467 363.2 129.04H346.56V147.52H363.68V130.4ZM469.68 110.16C474.747 113.413 477.28 115.52 477.28 116.48C477.28 117.013 476.667 117.28 475.44 117.28H457.36V136.72H465.28C465.973 136.4 466.88 135.627 468 134.4C469.173 133.173 469.947 132.56 470.32 132.56C471.227 132.56 472.64 133.413 474.56 135.12C476.533 136.773 477.52 138.053 477.52 138.96C477.52 139.28 476.96 139.76 475.84 140.4C474.72 141.04 474.16 141.52 474.16 141.84V162.64C474.48 166.907 474.64 169.227 474.64 169.6C474.533 170.507 472.613 171.04 468.88 171.2C468.827 171.2 468.8 171.2 468.8 171.2C467.787 171.2 467.28 170.507 467.28 169.12C467.28 167.787 467.387 166.373 467.6 164.88H443.2L443.52 169.28C443.52 170.56 441.627 171.2 437.84 171.2C436.88 171.2 436.347 170.56 436.24 169.28L436.64 162.64V137.76L436.24 133.92C436.187 133.653 436.267 133.52 436.48 133.52L444.56 136.72H450.88V103.92C450.88 102.373 450.8 101.28 450.64 100.64C450.48 100 450.613 99.68 451.04 99.68C451.787 99.68 453.413 99.8933 455.92 100.32C458.48 100.693 459.76 101.093 459.76 101.52C459.76 101.787 459.36 102.16 458.56 102.64C457.76 103.12 457.36 103.627 457.36 104.16V115.28H465.12L469.68 110.16ZM467.2 138.64H443.2C443.2 139.227 443.173 139.547 443.12 139.6V162.96H467.68V140.48C467.68 139.733 467.52 139.12 467.2 138.64ZM414.8 104.08L414.4 100.08C414.347 99.7067 414.533 99.52 414.96 99.52C420.72 99.52 423.6 100.133 423.6 101.36C423.6 101.68 423.2 102.08 422.4 102.56C421.6 102.987 421.2 103.44 421.2 103.92V114.56H424.64L429.6 110.32C430.133 110.32 431.333 111.04 433.2 112.48C435.12 113.92 436.08 115.093 436.08 116C436.08 116.267 435.52 116.8 434.4 117.6C433.28 118.4 432.72 119.067 432.72 119.6V147.52C432.72 151.52 431.227 153.52 428.24 153.52C427.76 153.52 427.44 153.307 427.28 152.88C426.747 151.44 425.2 150.133 422.64 148.96C421.893 148.8 421.52 148.533 421.52 148.16C421.52 147.787 421.84 147.6 422.48 147.6L425.36 147.92C426.427 147.92 426.96 147.493 426.96 146.64V118.32C426.96 117.627 426.8 117.04 426.48 116.56H421.2V162.56C421.52 166.293 421.68 168.507 421.68 169.2C421.68 170.48 419.733 171.12 415.84 171.12C415.52 171.12 415.067 170.453 414.48 169.12L414.88 162.56V116.56H409.76C409.653 116.773 409.6 126.533 409.6 145.84C409.92 149.573 410.08 151.787 410.08 152.48C410.08 153.707 408.32 154.32 404.8 154.32C404.747 154.373 404.693 154.4 404.64 154.4C404.32 154.4 403.867 153.733 403.28 152.4L403.68 145.84V115.36L403.28 111.76C403.227 111.44 403.307 111.28 403.52 111.28C403.787 111.28 404.933 111.76 406.96 112.72C408.987 113.627 410.56 114.24 411.68 114.56H414.88L414.8 104.08Z" fill="#40356F"/>
</svg>
